# AST/ASF file generated using VICON BodyLanguage
# -----------------------------------------------
:version 1.10
:name VICON
:units
  mass 1.0
  length 0.45
  angle deg
:documentation
   .ast/.asf automatically generated from VICON data using
   VICON BodyBuilder and BodyLanguage model FoxedUp or BRILLIANT.MOD
:root
   order TX TY TZ RX RY RZ
   axis XYZ
   position 0 0 0  
   orientation 0 0 0 
:bonedata
  begin
     id 1 
     name lhipjoint
     direction 0.537252 -0.787203 0.302774 
     length 2.29576 
     axis 0 0 0  XYZ
  end
  begin
     id 2 
     name lfemur
     direction 0.34202 -0.939693 0  
     length 7.31114  
     axis 0 0 20  XYZ
    dof rx ry rz
    limits (-160.0 20.0)
           (-70.0 70.0)
           (-60.0 70.0)
  end
  begin
     id 3 
     name ltibia
     direction 0.34202 -0.939693 0   
     length 8.36008   
     axis 0 0 20   XYZ
    dof rx
    limits (-10.0 170.0)
  end
  begin
     id 4 
     name lfoot
     direction 0.0969116 -0.266263 0.959016   
     length 2.16704   
     axis -90 7.62852e-016 20   XYZ
    dof rx rz
    limits (-45.0 90.0)
           (-70.0 20.0)
  end
  begin
     id 5 
     name ltoes
     direction 1.53563e-011 -4.21779e-011 1   
     length 1.08338   
     axis -90 7.62852e-016 20   XYZ
    dof rx
    limits (-90.0 20.0)
  end
  begin
     id 6 
     name rhipjoint
     direction -0.588228 -0.754791 0.290308   
     length 2.39434  
     axis 0 0 0  XYZ 
  end
  begin
     id 7 
     name rfemur
     direction -0.34202 -0.939693 0   
     length 7.45207   
     axis 0 0 -20   XYZ
    dof rx ry rz
    limits (-160.0 20.0)
           (-70.0 70.0)
           (-70.0 60.0)
  end
  begin
     id 8 
     name rtibia
     direction -0.34202 -0.939693 0   
     length 8.03565   
     axis 0 0 -20   XYZ
    dof rx
    limits (-10.0 170.0)
 end
 begin
     id 9 
     name rfoot
     direction -0.107009 -0.294004 0.949795   
     length 2.11509  
     axis -90 -7.62852e-016 -20   XYZ
    dof rx rz
    limits (-45.0 90.0)
           (-20.0 70.0)
  end
  begin
     id 10 
     name rtoes
     direction -1.53533e-011 -4.22004e-011 1   
     length 1.05493   
     axis -90 -7.62852e-016 -20   XYZ
    dof rx
    limits (-90.0 20.0)
  end
  begin
     id 11 
     name lowerback
     direction -0.0115208 0.997969 -0.0626515   
     length 2.03153   
     axis 0 0 0   XYZ
    dof rx ry rz
    limits (-20.0 45.0)
           (-30.0 30.0)
           (-30.0 30.0)
  end
  begin
     id 12 
     name upperback
     direction -0.00423475 0.999974 -0.00583614   
     length 2.03619   
     axis 0 0 0   XYZ
    dof rx ry rz
    limits (-20.0 45.0)
           (-30.0 30.0)
           (-30.0 30.0)
  end
  begin
     id 13 
     name thorax
     direction 0.00289429 0.999728 0.0231573   
     length 2.03921   
     axis 0 0 0   XYZ
    dof rx ry rz
    limits (-20.0 45.0)
           (-30.0 30.0)
           (-30.0 30.0)
  end
  begin
     id 14 
     name lowerneck
     direction 0.0188995 0.987777 0.154721   
     length 1.78836   
     axis 0 0 0   XYZ
    dof rx ry rz
    limits (-20.0 45.0)
           (-30.0 30.0)
           (-30.0 30.0)
  end
  begin
     id 15 
     name upperneck
     direction -0.00612612 0.992995 -0.118   
     length 1.81789   
     axis 0 0 0   XYZ
    dof rx ry rz
    limits (-20.0 45.0)
           (-30.0 30.0)
           (-30.0 30.0)
  end
  begin
     id 16
     name head
     direction -0.00420226 0.998397 -0.0564482  
     length 1.82234  
     axis 0 0 0   XYZ
    dof rx ry rz
    limits (-20.0 45.0)
           (-30.0 30.0)
           (-30.0 30.0)
  end
  begin
     id 17 
     name lclavicle
     direction 0.916488 0.396539 0.0529676  
     length 3.51732  
     axis 0 0 0   XYZ
    dof ry rz
    limits (-20.0 10.0)
           (0.0 20.0)
  end
  begin
     id 18 
     name lhumerus
     direction 1 -4.4896e-011 8.36962e-028   
     length 5.45077   
     axis 180 -30 -90   XYZ
    dof rx ry rz
    limits (-60.0 90.0)
           (-90.0 90.0)
           (-90.0 90.0)
  end
  begin
     id 19
     name lradius
     direction 1 -4.48962e-011 3.01407e-027   
     length 3.05488   
     axis 180 -30 -90   XYZ
    dof rx
    limits (-10.0 170.0)
  end
  begin
     id 20
     name lwrist
     direction 1 -4.49002e-011 4.72961e-027   
     length 1.52744   
     axis -2.72261e-015 90 90   XYZ
    dof ry
    limits (-180.0 0.0)
 end
  begin
     id 21 
     name lhand
     direction 1 -4.4899e-011 9.45681e-027   
     length 0.638818   
     axis -6.0311e-015 90 90   XYZ
    dof rx rz
    limits (-90.0 90.0)
           (-45.0 45.0)
  end
  begin
     id 22 
     name lfingers
     direction 1 -4.48871e-011 1.88632e-026   
     length 0.515032   
     axis -1.20625e-014 90 90   XYZ
    dof rx
    limits (0.0 90.0)
  end
  begin
     id 23
     name lthumb
     direction 0.707107 -6.34964e-011 0.707107   
     length 0.739485   
     axis -90 45 6.32835e-014   XYZ
    dof rx rz
    limits (-45.0 45.0)
           (-45.0 45.0)
  end
  begin
     id 24 
     name rclavicle
     direction -0.949427 0.303202 0.0815894   
     length 3.76167  
     axis 0 0 0   XYZ 
    dof ry rz
    limits (-10.0 20.0)
           (-20.0 0.0)
  end
  begin
     id 25 
     name rhumerus
     direction -1 -4.48971e-011 -6.43969e-018  
     length 4.88702   
     axis 180 30 90   XYZ
    dof rx ry rz
    limits (-90.0 60.0)
           (-90.0 90.0)
           (-90.0 90.0)
  end
  begin
     id 26 
     name rradius
     direction -1 -4.48987e-011 5.46662e-027   
     length 3.22603   
     axis 180 30 90   XYZ
    dof rx
    limits (-10.0 170.0)
  end
  begin
     id 27 
     name rwrist
     direction -1 -4.48956e-011 4.72476e-027   
     length 1.61302   
     axis -2.72261e-015 -90 -90   XYZ
    dof ry
    limits (-180.0 0.0)
  end
  begin
     id 28
     name rhand
     direction -1 -4.4889e-011 9.43571e-027   
     length 0.716293   
     axis -6.0311e-015 -90 -90   XYZ
    dof rx rz
    limits (-90.0 90.0)
           (-45.0 45.0)
  end
  begin
     id 29
     name rfingers
     direction -1 -4.48887e-011 1.88701e-026   
     length 0.577494   
     axis -1.20625e-014 -90 -90   XYZ
    dof rx
    limits (0.0 90.0)
  end
  begin
     id 30
     name rthumb
     direction -0.707107 -6.34825e-011 0.707107   
     length 0.829169   
     axis -90 -45 -6.32835e-014   XYZ
    dof rx rz
    limits (-45.0 45.0)
           (-45.0 45.0)
  end
:hierarchy
  begin
    root lhipjoint rhipjoint lowerback
    lhipjoint lfemur
    lfemur ltibia
    ltibia lfoot
    lfoot ltoes
    rhipjoint rfemur
    rfemur rtibia
    rtibia rfoot
    rfoot rtoes
    lowerback upperback
    upperback thorax
    thorax lowerneck lclavicle rclavicle
    lowerneck upperneck
    upperneck head
    lclavicle lhumerus
    lhumerus lradius
    lradius lwrist
    lwrist lhand lthumb
    lhand lfingers
    rclavicle rhumerus
    rhumerus rradius
    rradius rwrist
    rwrist rhand rthumb
    rhand rfingers
  end

#!OML:ASF F:\VICON\USERDATA\INSTALL\rory3\rory3.ASF
:FULLY-SPECIFIED
:DEGREES
609
root 1.5722 18.5488 0.679266 96.232 88.8923 83.6296
lowerback -10.6303 0.457819 -1.30448
upperback -3.74873 0.88562 -0.43351
thorax 2.04472 0.501822 0.395019
lowerneck -19.6431 -1.25822 2.66819
upperneck 20.1854 -2.80819 1.46616
head 9.6268 -0.87177 -0.310625
rclavicle 2.51635e-015 -7.45443e-017
rhumerus -40.9032 0.768117 -80.7857
rradius 50.2161
rwrist -165.302
rhand -27.95 -6.42082
rfingers 7.12502
rthumb -1.33758 -36.3964
lclavicle 2.51635e-015 -7.45443e-017
lhumerus -81.9224 -47.239 99.4277
lradius 102.431
lwrist 183.624
lhand -20.9176 -7.26945
lfingers 7.12502
lthumb 5.45391 22.6404
rfemur -8.17157 -11.0506 17.5266
rtibia 2.54444e-014
rfoot -2.26072 12.0512
rtoes -8.93596
lfemur -15.1974 7.58513 -18.848
ltibia 15.6905
lfoot -12.7774 -1.50761
ltoes -26.8345
610
root 1.57043 18.5481 0.679972 96.0598 88.9106 83.4594
lowerback -10.5813 0.470564 -1.26007
upperback -3.77107 0.897699 -0.442889
thorax 1.9954 0.508238 0.360972
lowerneck -19.6431 -1.27095 2.67693
upperneck 20.2453 -2.80882 1.37915
head 9.64596 -0.88024 -0.342693
rclavicle -7.56944e-015 9.30561e-015
rhumerus -40.963 0.626155 -80.7287
rradius 50.1601
rwrist -165.218
rhand -27.8761 -6.37082
rfingers 7.12502
rthumb -1.26623 -36.3468
lclavicle -7.56944e-015 9.30561e-015
lhumerus -81.7968 -47.1613 99.3646
lradius 102.306
lwrist 183.587
lhand -20.7799 -7.18803
lfingers 7.12502
lthumb 5.5869 22.7183
rfemur -8.18186 -11.0431 17.552
rtibia -1.35174e-014
rfoot -2.24664 12.048
rtoes -9.06863
lfemur -15.2137 7.58879 -18.8257
ltibia 15.7015
lfoot -12.7546 -1.46354
ltoes -27.0819
611
root 1.56919 18.5466 0.681995 96.2096 88.9904 83.5319
lowerback -10.6174 0.46535 -1.1883
upperback -3.81272 0.884881 -0.416234
thorax 1.97282 0.502804 0.346779
lowerneck -19.548 -1.2353 2.67181
upperneck 20.1298 -2.75486 1.39203
head 9.5886 -0.857821 -0.328703
rclavicle -1.11772e-014 1.2834e-014
rhumerus -41.0298 0.539507 -80.6806
rradius 50.1164
rwrist -165.163
rhand -27.7338 -6.41732
rfingers 7.12502
rthumb -1.12881 -36.3941
lclavicle -1.11772e-014 1.2834e-014
lhumerus -81.701 -47.0891 99.3278
lradius 102.205
lwrist 183.517
lhand -20.7781 -7.08589
lfingers 7.12502
lthumb 5.58864 22.8204
rfemur -8.26891 -11.0343 17.6662
rtibia -1.03368e-014
rfoot -2.23395 12.0468
rtoes -8.99402
lfemur -15.3192 7.54178 -18.7338
ltibia 15.7228
lfoot -12.7469 -1.41087
ltoes -26.9621
612
root 1.56949 18.5479 0.682966 95.5761 89.002 82.8799
lowerback -10.6293 0.47719 -1.16026
upperback -3.81616 0.898312 -0.422308
thorax 1.97608 0.509443 0.326474
lowerneck -19.5218 -1.21471 2.64418
upperneck 20.0698 -2.72558 1.43285
head 9.56403 -0.843362 -0.305528
rclavicle -1.12581e-014 2.23633e-016
rhumerus -41.0558 0.464577 -80.6336
rradius 50.0313
rwrist -165.097
rhand -27.6891 -6.59757
rfingers 7.12502
rthumb -1.08559 -36.5745
lclavicle -1.12581e-014 2.23633e-016
lhumerus -81.5958 -47.0848 99.3061
lradius 102.105
lwrist 183.394
lhand -20.7221 -6.99089
lfingers 7.12502
lthumb 5.64268 22.914
rfemur -8.28313 -11.0222 17.6824
rtibia -1.11319e-014
rfoot -2.26281 12.0594
rtoes -9.24089
lfemur -15.3334 7.52248 -18.7188
ltibia 15.7197
lfoot -12.7492 -1.37817
ltoes -26.8981
613
root 1.56893 18.5474 0.68497 96.8223 88.9925 84.1328
lowerback -10.5982 0.484988 -1.15343
upperback -3.83283 0.908273 -0.437903
thorax 1.94203 0.514786 0.307147
lowerneck -19.4859 -1.23018 2.60922
upperneck 20.0874 -2.73542 1.43515
head 9.56404 -0.849981 -0.300097
rclavicle 1.83188e-014 -1.08338e-014
rhumerus -41.1197 0.400938 -80.5886
rradius 49.928
rwrist -165.053
rhand -27.5546 -6.77882
rfingers 7.12502
rthumb -0.955697 -36.7564
lclavicle 1.83188e-014 -1.08338e-014
lhumerus -81.532 -47.1116 99.288
lradius 102.013
lwrist 183.41
lhand -20.8255 -6.90365
lfingers 7.12502
lthumb 5.54284 23.0039
rfemur -8.27659 -11.043 17.6814
rtibia 7.95139e-016
rfoot -2.25608 12.0604
rtoes -9.26472
lfemur -15.3261 7.45327 -18.7147
ltibia 15.6921
lfoot -12.7115 -1.31448
ltoes -27.041
614
root 1.56964 18.5484 0.686184 98.3255 88.9358 85.6275
lowerback -10.5865 0.473705 -1.19856
upperback -3.85816 0.898791 -0.44744
thorax 1.9089 0.511001 0.321157
lowerneck -19.4854 -1.22692 2.54885
upperneck 20.1406 -2.71292 1.4333
head 9.58343 -0.843073 -0.287923
rclavicle 9.94467e-015 9.11925e-015
rhumerus -41.1752 0.363459 -80.5194
rradius 49.8526
rwrist -164.981
rhand -27.6623 -6.77556
rfingers 7.12502
rthumb -1.05975 -36.7527
lclavicle 9.94467e-015 9.11925e-015
lhumerus -81.5441 -47.0788 99.3287
lradius 101.933
lwrist 183.496
lhand -20.8141 -7.0379
lfingers 7.12502
lthumb 5.55385 22.8693
rfemur -8.27937 -11.0797 17.6218
rtibia 2.3059e-014
rfoot -2.24685 12.0493
rtoes -9.12975
lfemur -15.3138 7.42171 -18.773
ltibia 15.6466
lfoot -12.7049 -1.31294
ltoes -27.041
615
root 1.56908 18.548 0.686029 98.7518 88.8133 86.0542
lowerback -10.5768 0.45685 -1.30652
upperback -3.84735 0.888095 -0.487753
thorax 1.91395 0.505817 0.338846
lowerneck -19.5828 -1.21012 2.5653
upperneck 20.207 -2.69181 1.3978
head 9.62386 -0.834178 -0.301113
rclavicle -1.82643e-015 6.55989e-015
rhumerus -41.1792 0.323527 -80.4976
rradius 49.7822
rwrist -164.959
rhand -28.0105 -6.51753
rfingers 7.12502
rthumb -1.39609 -36.4927
lclavicle -1.82643e-015 6.55989e-015
lhumerus -81.4945 -47.0733 99.2675
lradius 101.873
lwrist 183.609
lhand -20.8265 -7.04356
lfingers 7.12502
lthumb 5.54184 22.864
rfemur -8.28513 -11.1107 17.4804
rtibia 7.15625e-015
rfoot -2.20412 12.0222
rtoes -8.80783
lfemur -15.2958 7.36735 -18.9071
ltibia 15.6247
lfoot -12.7021 -1.32985
ltoes -26.7257
616
root 1.56737 18.5484 0.68665 99.9327 88.8583 87.2064
lowerback -10.5913 0.45439 -1.23205
upperback -3.86684 0.878223 -0.485738
thorax 1.90293 0.501073 0.297905
lowerneck -19.5734 -1.21957 2.56163
upperneck 20.2596 -2.68704 1.32587
head 9.6393 -0.839574 -0.325028
rclavicle 2.89941e-015 -4.44781e-015
rhumerus -41.2181 0.292211 -80.4821
rradius 49.7082
rwrist -164.994
rhand -28.2172 -6.3452
rfingers 7.12502
rthumb -1.59571 -36.319
lclavicle 2.89941e-015 -4.44781e-015
lhumerus -81.5113 -47.0884 99.2944
lradius 101.79
lwrist 183.697
lhand -20.8216 -7.00847
lfingers 7.12502
lthumb 5.54658 22.8989
rfemur -8.32042 -11.1256 17.5421
rtibia -1.74931e-014
rfoot -2.19707 12.02
rtoes -8.70615
lfemur -15.336 7.33836 -18.8552
ltibia 15.6251
lfoot -12.69 -1.31473
ltoes -26.551
